<?xml version="1.0" encoding="utf-8"?>
<!-- Generator: Adobe Illustrator 21.0.0, SVG Export Plug-In . SVG Version: 6.00 Build 0)  -->
<svg version="1.1" id="icon-account" xmlns="http://www.w3.org/2000/svg" xmlns:xlink="http://www.w3.org/1999/xlink" x="0px"
	 y="0px" viewBox="0 0 40 40" style="enable-background:new 0 0 40 40;" xml:space="preserve">
<style type="text/css">
	.st0{fill:#CED0D6;}
	.st1{fill:#FFFFFF;}
	.st2{fill:#D7D9DB;}
</style>
<path class="st0" d="M35,6H25v2H15V6H5C3.3,6,2,7.4,2,9v22c0,1.7,1.3,3,3,3h30c1.7,0,3-1.3,3-3V9C38,7.4,36.7,6,35,6z"/>
<path class="st1" d="M5,8h30c0.6,0,1,0.4,1,1v22c0,0.6-0.4,1-1,1H5c-0.6,0-1-0.4-1-1V9C4,8.5,4.4,8,5,8z"/>
<circle class="st0" cx="15" cy="7" r="1"/>
<circle class="st0" cx="25" cy="7" r="1"/>
<path class="st0" d="M18.5,9.2c0,0.4,0.4,0.7,0.8,0.8h1.4c0.4,0,0.8-0.3,0.8-0.8l0.1-0.6l0,0l0.1-1.1L22,4.9c0-0.2,0-0.5-0.2-0.7
	C21.7,4.1,21.5,4,21.2,4h-2.4c-0.2,0-0.5,0.1-0.6,0.3C18.1,4.5,18,4.7,18,4.9L18.5,9.2z"/>
<path id="account-2" class="st2" d="M12.3,16.9c0,0.3,0,0.6,0.1,0.9c-0.2,0.1-0.3,0.3-0.3,0.5c0,0.3,0.2,0.5,0.5,0.5l0,0
	c-0.1,1.3,0.8,2.5,2.1,2.6s2.5-0.8,2.6-2.1c0-0.2,0-0.3,0-0.5l0,0c0.3,0,0.5-0.2,0.5-0.5c0-0.2-0.1-0.4-0.3-0.5
	c0.1-0.3,0.1-0.6,0.1-0.9c0.1-1.5-1-2.8-2.5-2.9c-1.5-0.1-2.8,1-2.9,2.5C12.3,16.7,12.3,16.8,12.3,16.9z M16.9,22.4h-0.1h-0.1
	c-1,0.5-2.3,0.5-3.3,0h-0.1h-0.1c0,0,0,0-0.1,0c-1.5,0.4-2.9,1.1-4,2.2c0,0-0.1,0.1-0.1,0.2v0.9C9,25.9,9.1,26,9.3,26l0,0h11.5
	c0.1,0,0.2-0.1,0.2-0.3v-0.9c0-0.1,0-0.1-0.1-0.2c-1.1-1.1-2.4-1.8-3.9-2.2H16.9L16.9,22.4z M23,18h8c0.6,0,1,0.4,1,1s-0.4,1-1,1h-8
	c-0.6,0-1-0.4-1-1S22.4,18,23,18z M23,22h8c0.6,0,1,0.4,1,1s-0.4,1-1,1h-8c-0.6,0-1-0.4-1-1S22.4,22,23,22z"/>
</svg>
