<?xml version="1.0" encoding="utf-8"?>
<!-- Generator: Adobe Illustrator 21.0.0, SVG Export Plug-In . SVG Version: 6.00 Build 0)  -->
<svg version="1.1" id="dora" xmlns="http://www.w3.org/2000/svg" xmlns:xlink="http://www.w3.org/1999/xlink" x="0px" y="0px"
	 viewBox="0 0 40 40" style="enable-background:new 0 0 40 40;" xml:space="preserve">
<style type="text/css">
	.st0{fill:#FFFFFF;}
	.st1{fill:#CED0D6;}
	.st2{fill:#A2A4A8;}
</style>
<rect id="color" x="8" y="8" class="st0" width="24" height="24"/>
<rect id="color2" x="13" y="13" class="st0" width="14" height="14"/>
<path class="st1" d="M9,6h22c1.7,0,3,1.3,3,3v22c0,1.7-1.3,3-3,3l0,0H9c-1.7,0-3-1.3-3-3l0,0V9C6,7.3,7.3,6,9,6z"/>
<path class="st0" d="M9,8h22c0.6,0,1,0.4,1,1v22c0,0.6-0.4,1-1,1H9c-0.6,0-1-0.4-1-1V9C8,8.4,8.4,8,9,8z"/>
<rect x="10" y="2" class="st1" width="2" height="5"/>
<rect x="16" y="2" class="st1" width="2" height="5"/>
<rect x="22" y="2" class="st1" width="2" height="5"/>
<rect x="28" y="2" class="st1" width="2" height="5"/>
<rect x="10" y="33" class="st1" width="2" height="5"/>
<rect x="16" y="33" class="st1" width="2" height="5"/>
<rect x="22" y="33" class="st1" width="2" height="5"/>
<rect x="28" y="33" class="st1" width="2" height="5"/>
<rect x="2" y="28" class="st1" width="5" height="2"/>
<rect x="2" y="22" class="st1" width="5" height="2"/>
<rect x="2" y="16" class="st1" width="5" height="2"/>
<rect x="2" y="10" class="st1" width="5" height="2"/>
<rect x="33" y="28" class="st1" width="5" height="2"/>
<rect x="33" y="22" class="st1" width="5" height="2"/>
<rect x="33" y="16" class="st1" width="5" height="2"/>
<rect x="33" y="10" class="st1" width="5" height="2"/>
<rect x="12" y="12" class="st2" width="16" height="16"/>
<rect x="14" y="14" class="st0" width="12" height="12"/>
</svg>
