<?xml version="1.0" encoding="utf-8"?>
<!-- Generator: Adobe Illustrator 21.0.0, SVG Export Plug-In . SVG Version: 6.00 Build 0)  -->
<svg version="1.1" id="fusion" xmlns="http://www.w3.org/2000/svg" xmlns:xlink="http://www.w3.org/1999/xlink" x="0px" y="0px"
	 viewBox="0 0 40 40" style="enable-background:new 0 0 40 40;" xml:space="preserve">
<style type="text/css">
	.st0{fill:#CED0D6;}
	.st1{fill:#FFFFFF;}
	.st2{clip-path:url(#SVGID_2_);fill:#AEDDAC;}
</style>
<circle class="st0" cx="20" cy="20" r="18"/>
<path class="st1" d="M20,3.9c8.9,0,16.1,7.2,16.1,16.1S28.9,36.1,20,36.1S3.9,28.9,3.9,20l0,0C3.9,11.1,11.1,3.9,20,3.9L20,3.9
	L20,3.9z"/>
<g>
	<g>
		<defs>
			<path id="SVGID_1_" d="M20,2c6.7,0,12.9,3.7,16,9.7c-0.1,0.3-0.4,0.6-0.8,0.7c-0.5,0.3-1.3-0.1-1.6,0s-1-0.1-1.6,0s0.4,0.7,0,1.6
				c-0.6,1-1.4,1.8-2.4,2.4c-1.2,1-2.8,1.4-3.2,4s0.5,5.9-0.8,5.6c-0.6-0.1-2.1-2.2-2.4-3.2c-0.2-0.9-1.5-2.5-1.6-3
				c-0.2-1.5-0.9-2.6,0-4.2c0.4-0.5,1-0.8,1.6-0.8c0.4,0,0.4-1.2,0.8-1.6s-0.4-2.6-0.8-3.2s-1.7-0.2-2.4,0S20,9.2,20,9.2
				s0-1.6-0.7-1.6c-0.8-0.1-1.6-0.1-2.4,0c-0.8,0.2-1.1-0.2-1.6,0c-0.6,0.4-1.2,1-1.6,1.6c-0.9,1-0.2,0.9-0.8,0.8s-0.1-2.7-0.8-3.2
				s-1,0.2-1.6,0c-0.4-0.4-0.7-0.8-1-1.4C12.5,3.2,16.2,2,20,2z M12.2,23.6c0.5,1.2-0.8,3.6-1.6,4.8c-1,1.6-2.1,3-3.4,4.3
				c-2.8-2.8-4.5-6.4-5.1-10.2c0.9-0.2,3.6,1.1,4.5,1.1c2.1-0.1,2.7-0.8,3.2-0.8S11.7,22.4,12.2,23.6z"/>
		</defs>
		<clipPath id="SVGID_2_">
			<use xlink:href="#SVGID_1_"  style="overflow:visible;"/>
		</clipPath>
		<path class="st2" d="M20,3.9c8.9,0,16.1,7.2,16.1,16.1S28.9,36.1,20,36.1S3.9,28.9,3.9,20l0,0C3.9,11.1,11.1,3.9,20,3.9L20,3.9
			L20,3.9z"/>
	</g>
</g>
</svg>
