<?xml version="1.0" encoding="utf-8"?>
<!-- Generator: Adobe Illustrator 21.0.0, SVG Export Plug-In . SVG Version: 6.00 Build 0)  -->
<svg version="1.1" id="kodo" xmlns="http://www.w3.org/2000/svg" xmlns:xlink="http://www.w3.org/1999/xlink" x="0px" y="0px"
	 viewBox="0 0 40 40" style="enable-background:new 0 0 40 40;" xml:space="preserve">
<style type="text/css">
	.st0{fill:#CED0D6;}
	.st1{fill:#FFFFFF;}
	.st2{fill:#F0F2F5;}
	.st3{fill:#A5C5E6;}
</style>
<path id="bg" class="st0" d="M5,6h28c1.7,0,3,1.3,3,3v24c0,1.7-1.3,3-3,3H5c-1.7,0-3-1.3-3-3V9C2,7.3,3.3,6,5,6z M5,8h28
	c0.6,0,1,0.4,1,1v24c0,0.6-0.4,1-1,1H5c-0.6,0-1-0.4-1-1V9C4,8.4,4.4,8,5,8z M21,10H5c-0.4,0-0.7-0.2-0.9-0.5C4,9.2,4,8.8,4.2,8.5
	l3.3-6C7.6,2.2,7.9,2,8.3,2h9.4c0.4,0,0.7,0.2,0.9,0.5l3.3,6c0.2,0.3,0.2,0.7,0,1C21.6,9.8,21.3,10,21,10z M6.7,8h12.6l-2.2-4H8.9
	L6.7,8z"/>
<path id="color" class="st1" d="M4,12h30l0,0v21c0,0.6-0.4,1-1,1H5c-0.6,0-1-0.4-1-1V12L4,12z"/>
<path id="color-gary" class="st2" d="M5,8h28c0.6,0,1,0.4,1,1v1H4V9C4,8.4,4.4,8,5,8z M6.7,8h12.6l-2.2-4H8.9L6.7,8z"/>
<rect x="10" y="16" class="st3" width="18" height="14"/>
<rect x="12" y="18" class="st1" width="14" height="10"/>
<rect x="14" y="20" class="st3" width="10" height="2"/>
<rect x="14" y="24" class="st3" width="10" height="2"/>
</svg>
