<?xml version="1.0" encoding="utf-8"?>
<!-- Generator: Adobe Illustrator 21.0.0, SVG Export Plug-In . SVG Version: 6.00 Build 0)  -->
<svg version="1.1" id="pili" xmlns="http://www.w3.org/2000/svg" xmlns:xlink="http://www.w3.org/1999/xlink" x="0px" y="0px"
	 viewBox="0 0 40 40" style="enable-background:new 0 0 40 40;" xml:space="preserve">
<style type="text/css">
	.st0{fill:#CED0D6;}
	.st1{fill:#FFFFFF;}
	.st2{fill:#D68989;}
</style>
<path class="st0" d="M7,4h26c1.7,0,3,1.3,3,3l0,0v28c0,1.7-1.3,3-3,3H7c-1.7,0-3-1.3-3-3V7C4,5.3,5.3,4,7,4L7,4z"/>
<path class="st1" d="M7,6h26c0.6,0,1,0.4,1,1v28c0,0.6-0.4,1-1,1H7c-0.6,0-1-0.4-1-1V7C6,6.4,6.4,6,7,6z"/>
<rect x="10" y="32" class="st0" width="6" height="2"/>
<rect x="28" y="32" class="st0" width="2" height="2"/>
<rect x="6" y="28" class="st0" width="28" height="2"/>
<rect x="24" y="32" class="st0" width="2" height="2"/>
<path id="play" class="st2" d="M18.5,22c-0.1,0-0.2,0-0.2-0.1c-0.2-0.1-0.3-0.3-0.3-0.4v-8c0-0.3,0.2-0.5,0.5-0.5
	c0.1,0,0.2,0,0.3,0.1l6,4c0.2,0.2,0.3,0.5,0.1,0.7c0,0.1-0.1,0.1-0.1,0.1l-6,4C18.7,22,18.6,22,18.5,22z"/>
</svg>
