<?xml version="1.0" encoding="utf-8"?>
<!-- Generator: Adobe Illustrator 21.0.0, SVG Export Plug-In . SVG Version: 6.00 Build 0)  -->
<svg version="1.1" id="ssl-certificate" xmlns="http://www.w3.org/2000/svg" xmlns:xlink="http://www.w3.org/1999/xlink" x="0px"
	 y="0px" viewBox="0 0 40 40" style="enable-background:new 0 0 40 40;" xml:space="preserve">
<style type="text/css">
	.st0{fill:#CED0D6;}
	.st1{fill:#FFFFFF;}
	.st2{fill:#E6E7EB;}
	.st3{fill:#D68989;}
	.st4{fill:#EBADAD;}
</style>
<path class="st0" d="M35,35H5c-1.7,0-3-1.3-3-3V8c0-1.7,1.3-3,3-3h30c1.7,0,3,1.3,3,3v24C38,33.7,36.7,35,35,35z"/>
<path id="color" class="st1" d="M5,7h30c0.6,0,1,0.4,1,1v24c0,0.6-0.4,1-1,1H5c-0.6,0-1-0.4-1-1V8C4,7.4,4.4,7,5,7z"/>
<path id="line" class="st2" d="M21,15h12c0.6,0,1,0.4,1,1s-0.4,1-1,1H21c-0.6,0-1-0.4-1-1S20.4,15,21,15z M21,19h6c0.6,0,1,0.4,1,1
	s-0.4,1-1,1h-6c-0.6,0-1-0.4-1-1S20.4,19,21,19z M21,23h10c0.6,0,1,0.4,1,1s-0.4,1-1,1H21c-0.6,0-1-0.4-1-1S20.4,23,21,23z"/>
<path id="shape" class="st3" d="M8,28l3-3l3,3v-9H8V28L8,28z"/>
<path id="shape-2" class="st4" d="M11,12c2.8,0,5,2.2,5,5s-2.2,5-5,5s-5-2.2-5-5S8.2,12,11,12z M11,14c1.7,0,3,1.3,3,3s-1.3,3-3,3
	s-3-1.3-3-3S9.3,14,11,14z"/>
<circle id="shape-3" class="st1" cx="11" cy="17" r="3"/>
</svg>
